<?xml version="1.0" standalone="no"?><!DOCTYPE svg PUBLIC "-//W3C//DTD SVG 1.1//EN" "http://www.w3.org/Graphics/SVG/1.1/DTD/svg11.dtd"><svg t="1643253142466" class="icon" viewBox="0 0 1024 1024" version="1.1" xmlns="http://www.w3.org/2000/svg" p-id="4494" data-spm-anchor-id="a313x.7781069.0.i0" xmlns:xlink="http://www.w3.org/1999/xlink" width="100" height="100"><defs><style type="text/css"></style></defs><path d="M512 1019.308218C232.261818 1019.308218 4.673164 791.719564 4.673164 512 4.673164 232.261818 232.261818 4.673164 512 4.673164c279.719564 0 507.308218 227.588655 507.308218 507.326836 0 279.719564-227.588655 507.308218-507.308218 507.308218z m0-977.398691C252.797673 41.909527 41.909527 252.797673 41.909527 512S252.797673 982.071855 512 982.071855 982.071855 771.202327 982.071855 512 771.202327 41.909527 512 41.909527z" fill="#ffffff" p-id="4495" data-spm-anchor-id="a313x.7781069.0.i1" class=""></path><path d="M511.273891 603.899345a200.517818 200.517818 0 0 1-141.758836-58.181818c-38.390691-37.888-59.708509-88.454982-60.062255-142.373236s20.312436-104.764509 58.181818-143.136582a200.555055 200.555055 0 0 1 142.373237-60.080873c110.889891-1.172945 202.472727 89.236945 203.217454 200.555055a200.610909 200.610909 0 0 1-58.200436 143.136582 200.517818 200.517818 0 0 1-142.373237 60.062254l-1.377745 0.018618z m0.074473-366.536145h-1.098473a163.616582 163.616582 0 0 0-116.102982 48.984436c-30.906182 31.297164-47.755636 72.759855-47.457745 116.754619s17.687273 85.215418 48.984436 116.102981a166.0928 166.0928 0 0 0 116.736 47.457746c90.782255-0.577164 164.156509-74.919564 163.579345-165.720437-0.6144-90.428509-74.379636-163.579345-164.640581-163.579345z" fill="#ffffff" p-id="4496" data-spm-anchor-id="a313x.7781069.0.i2" class=""></path><path d="M200.480582 892.685964l-1.2288-0.037237a18.618182 18.618182 0 0 1-17.370764-19.791127c11.152291-170.710109 154.028218-305.300945 325.296873-306.436655h0.111709a18.618182 18.618182 0 0 1 0.111709 37.236364c-151.831273 1.005382-278.490764 120.310691-288.377018 271.639273a18.618182 18.618182 0 0 1-18.543709 17.389382zM818.827636 911.136582a18.618182 18.618182 0 0 1-18.618181-18.469237 292.063418 292.063418 0 0 0-101.804219-219.210472 18.618182 18.618182 0 1 1 24.222255-28.281018 329.579055 329.579055 0 0 1 114.390109 231.51709c0.260655 5.231709 0.4096 10.463418 0.446836 15.695128a18.618182 18.618182 0 0 1-18.469236 18.767127l-0.167564-0.018618z" fill="#ffffff" p-id="4497" data-spm-anchor-id="a313x.7781069.0.i3" class=""></path></svg>